<svg xmlns="http://www.w3.org/2000/svg" viewBox="0 0 24 24" fill="currentColor">
  <path fill-rule="evenodd" d="M12 2C6.477 2 2 6.484 2 12.017c0 4.425 2.865 8.18 6.839 9.504.499.09.679-.217.679-.481 0-.237-.015-.867-.015-1.704-2.791.602-3.374-1.341-3.374-1.341-.454-1.151-1.11-1.458-1.11-1.458-.908-.619.069-.606.069-.606 1.003.07 1.531 1.032 1.531 1.032.892 1.53 2.341 1.088 2.909.833.091-.647.35-1.088.636-1.338-2.22-.253-4.555-1.113-4.555-4.954 0-1.091.39-1.984 1.029-2.682-.103-.253-.446-1.272.098-2.65 0 0 .84-.271 2.75 1.025A9.237 9.237 0 0112 5.028c.847.009 1.681.14 2.457.457 1.909-1.296 2.747-1.025 2.747-1.025.546 1.379.203 2.398.1 2.651.64.698 1.028 1.591 1.028 2.682 0 3.854-2.339 4.69-4.566 4.943.359.309.678.92.678 1.855 0 1.338-.015 2.419-.015 2.747 0 .265.18.577.688.48C21.137 20.188 24 16.42 24 12.017 24 6.484 19.522 2 14 2h-2z" clip-rule="evenodd"/>
</svg>