<svg xmlns="http://www.w3.org/2000/svg" viewBox="0 0 24 24" fill="currentColor">
  <path d="M.057 24l1.687-6.163c-1.041-1.804-1.68-3.945-1.68-6.191 0-6.046 4.945-10.994 11.002-10.994 3.03 0 5.877 1.229 7.958 3.213l.764-.764h-3.351v-3.815c3.846 1.11 6.643 4.672 6.643 8.956.001 6.046-4.945 10.994-11.002 10.994-1.956 0-3.8-.574-5.422-1.573l-6.147 1.624zm14.358-7.971c-.097-.052-.6-.292-.693-.324-.093-.032-.19-.049-.27-.049s-.217.032-.308.163c-.09.13-.357.447-.435.54s-.157.129-.286.064c-.127-.064-.533-.198-1.013-.625-.373-.33-.625-.558-.703-.69-.079-.133-.008-.198.056-.262.05-.058.129-.143.193-.217.064-.075.086-.137.129-.214.043-.076.021-.137-.011-.19-.032-.05-.27-.64-.373-.878-.103-.238-.205-.205-.27-.205-.064 0-.137-.008-.214-.008-.076 0-.198.032-.303.163-.105.13-.404.394-.49.49-.086.095-.164.129-.24.129s-.19-.011-.295-.054c-.105-.043-.248-.09-.475-.221-.227-.132-.544-.323-.77-.442-.226-.118-.383-.179-.533-.179-.15 0-.323.045-.49.221-.166.176-.64.623-.64 1.517 0 .894.654 1.745.748 1.874.093.131 1.284 1.95 3.125 2.768.403.179.719.288.963.37.378.129.722.107.994.066.27-.041.8-.328.915-.644.114-.316.114-.593.082-.646-.032-.052-.103-.086-.217-.14z" />
</svg>